# xmcd CD database file generated by Grip 2.7
# 
# Track frame offsets:
#       150
#       13705
#       45070
#       71315
#       86032
#       122140
#       126600
#       149700
#       169295
#       183302
#       200122
#       217195
#       248232
#       268252
#       278622
# 
# Disc length: 3793 seconds
# 
# Revision: 3
# Processed by: cddbd v1.4b41PL1 Copyright (c) Steve Scherf et al.
# Submitted via: Grip 2.7
# 
DISCID=ee0ecf0f
DTITLE=Flávio Guimarães - Little Blues
DYEAR=1900
DGENRE=
TTITLE0=Telephone Blues
TTITLE1=Take Five
TTITLE2=Blues Jam For Charlie
TTITLE3=Honestido
TTITLE4=Blue Stu
TTITLE5=Free Delay
TTITLE6=Hoochie Coochie Man
TTITLE7=Sick And Tired
TTITLE8=Surfing
TTITLE9=Baby Please Don't Go
TTITLE10=Hand Jive
TTITLE11=Na Baixa Do Sapateiro
TTITLE12=Tin Sandwich Swing
TTITLE13=Russo's Blues
TTITLE14=Blues Para Márcia
EXTD=
EXTT0=
EXTT1=
EXTT2=
EXTT3=
EXTT4=
EXTT5=
EXTT6=
EXTT7=
EXTT8=
EXTT9=
EXTT10=
EXTT11=
EXTT12=
EXTT13=
EXTT14=
PLAYORDER=
